<?xml version="1.0" encoding="utf-8"?>
<!-- Generator: Adobe Illustrator 28.1.0, SVG Export Plug-In . SVG Version: 6.00 Build 0)  -->
<svg version="1.1"
	 id="svg6" xmlns:svg="http://www.w3.org/2000/svg" xmlns:inkscape="http://www.inkscape.org/namespaces/inkscape" xmlns:sodipodi="http://sodipodi.sourceforge.net/DTD/sodipodi-0.dtd"
	 xmlns="http://www.w3.org/2000/svg" xmlns:xlink="http://www.w3.org/1999/xlink" x="0px" y="0px" viewBox="0 0 40 40"
	 style="enable-background:new 0 0 40 40;" xml:space="preserve">
<style type="text/css">
	.st0{fill:url(#rect2356_00000110457814950371870720000006320679181422889141_);}
	.st1{clip-path:url(#SVGID_00000121242450418741822880000017282856487203415199_);fill:none;stroke:#FFFFFF;stroke-width:2;}
	.st2{clip-path:url(#SVGID_00000121242450418741822880000017282856487203415199_);fill:#FFFFFF;}
</style>
<sodipodi:namedview  bordercolor="#666666" borderopacity="1.0" id="namedview8" inkscape:current-layer="svg6" inkscape:cx="8.7076271" inkscape:cy="45.572034" inkscape:deskcolor="#d1d1d1" inkscape:pagecheckerboard="0" inkscape:pageopacity="0.0" inkscape:showpageshadow="2" inkscape:window-height="1387" inkscape:window-maximized="0" inkscape:window-width="1280" inkscape:window-x="1280" inkscape:window-y="25" inkscape:zoom="7.8666667" pagecolor="#ffffff" showgrid="false">
	</sodipodi:namedview>
<linearGradient id="rect2356_00000010309497643378591000000015962416109549427374_" gradientUnits="userSpaceOnUse" x1="-9.9525" y1="39.2607" x2="31.1009" y2="12.8617">
	<stop  offset="0" style="stop-color:#792FF7"/>
	<stop  offset="0.3148" style="stop-color:#A92CE8"/>
	<stop  offset="0.6136" style="stop-color:#D02ADC"/>
	<stop  offset="0.8519" style="stop-color:#E729D5"/>
	<stop  offset="1" style="stop-color:#F028D2"/>
</linearGradient>
<path id="rect2356" style="fill:url(#rect2356_00000010309497643378591000000015962416109549427374_);" d="M4,0h32c2.2,0,4,1.8,4,4
	v32c0,2.2-1.8,4-4,4H4c-2.2,0-4-1.8-4-4V4C0,1.8,1.8,0,4,0z"/>
<g>
	<defs>
		<polygon id="SVGID_1_" points="4.7,34.6 35,34.5 35,5.1 4.7,5.2 		"/>
	</defs>
	<clipPath id="SVGID_00000049940772387113355320000008489827861513545137_">
		<use xlink:href="#SVGID_1_"  style="overflow:visible;"/>
	</clipPath>
	
		<path style="clip-path:url(#SVGID_00000049940772387113355320000008489827861513545137_);fill:none;stroke:#FFFFFF;stroke-width:2;" d="
		M20.1,32.8c7.4,0,13.4-5.8,13.4-13.1c0-7.2-6-13.1-13.4-13.1S6.7,12.5,6.7,19.7C6.7,27,12.7,32.8,20.1,32.8"/>
	
		<line style="clip-path:url(#SVGID_00000049940772387113355320000008489827861513545137_);fill:none;stroke:#FFFFFF;stroke-width:2;" x1="29" y1="29.1" x2="33.8" y2="33.9"/>
	<path style="clip-path:url(#SVGID_00000049940772387113355320000008489827861513545137_);fill:#FFFFFF;" d="M21.2,19.1
		c0,0,0.5-3.1,0.5-3.5c0-0.4-0.1-1.3-0.5-0.9c-0.4,0.4-4.2,4.3-4.5,4.6c-0.4,0.4-0.5,0.6,0,0.7s2.2,0.3,2.2,0.3
		c0.1,0,0.2,0.1,0.2,0.2c0,0-0.5,3.2-0.5,3.5c0,0.3,0,1.4,0.5,1c0.4-0.4,3.4-3.5,4.6-4.7c0.3-0.3-0.1-0.6-0.5-0.6
		c-0.4-0.1-1.8-0.2-1.8-0.2C21.3,19.3,21.2,19.2,21.2,19.1"/>
</g>
</svg>
