<?xml version="1.0" encoding="UTF-8" standalone="no"?>
<svg
   class="search-bar-findkit-logo"
   width="40"
   height="40"
   viewBox="0 0 32 26.666667"
   version="1.1"
   id="svg6"
   sodipodi:docname="icon.svg"
   inkscape:version="1.2 (dc2aeda, 2022-05-15)"
   inkscape:export-filename="icon-256x256.png"
   inkscape:export-xdpi="614.40002"
   inkscape:export-ydpi="614.40002"
   xmlns:inkscape="http://www.inkscape.org/namespaces/inkscape"
   xmlns:sodipodi="http://sodipodi.sourceforge.net/DTD/sodipodi-0.dtd"
   xmlns="http://www.w3.org/2000/svg"
   xmlns:svg="http://www.w3.org/2000/svg">
  <defs
     id="defs10" />
  <sodipodi:namedview
     id="namedview8"
     pagecolor="#ffffff"
     bordercolor="#666666"
     borderopacity="1.0"
     inkscape:showpageshadow="2"
     inkscape:pageopacity="0.0"
     inkscape:pagecheckerboard="0"
     inkscape:deskcolor="#d1d1d1"
     showgrid="false"
     inkscape:zoom="7.8666667"
     inkscape:cx="8.7076271"
     inkscape:cy="45.572034"
     inkscape:window-width="1280"
     inkscape:window-height="1387"
     inkscape:window-x="1280"
     inkscape:window-y="25"
     inkscape:window-maximized="0"
     inkscape:current-layer="svg6" />
  <rect
     style="fill:#c828d2;fill-opacity:1;stroke-width:0.582312"
     id="rect2356"
     width="32.135597"
     height="32.440678"
     x="-1.1961339e-06"
     y="-2.7683613" />
  <g
     id="g2302"
     transform="translate(-0.6485509,0.60824388)">
    <path
       fill="currentColor"
       d="m 19.286051,11.497458 c -0.027,3.444 -2.696,6.209 -5.958,6.18 -3.263,0.034 -5.9320002,-2.736 -5.9650002,-6.18 0.033,-3.4420004 2.7020002,-6.2070004 5.9650002,-6.1780004 3.262,-0.03 5.931,2.741 5.958,6.1790004 z m 4.243,10.537 a 1.906,1.906 0 0 0 -0.032,-2.592 l -3.154,-3.277 a 8.82,8.82 0 0 0 1.33,-4.656 c 0,-4.7820004 -3.739,-8.6620004 -8.346,-8.6620004 -4.6080002,0 -8.3440002,3.886 -8.3440002,8.6620004 0,4.777 3.736,8.657 8.3450002,8.657 a 8.13,8.13 0 0 0 4.488,-1.38 l 3.153,3.277 a 1.751,1.751 0 0 0 2.528,0 c 0.01,-0.012 0.022,-0.018 0.032,-0.029 z"
       id="path2"
       style="fill:#ffffff;fill-opacity:1" />
    <path
       fill="currentColor"
       d="m 26.585051,14.566458 v -3.269 l -2.852,4.198 h 1.623 c 0.058,0 0.106,0.051 0.106,0.114 v 3.275 l 2.852,-4.198 h -1.623 c -0.058,0 -0.106,-0.051 -0.106,-0.115"
       id="path4"
       style="fill:#ffffff;fill-opacity:1" />
  </g>
</svg>
